<svg xmlns="http://www.w3.org/2000/svg" xmlns:xlink="http://www.w3.org/1999/xlink" width="1587" zoomAndPan="magnify" viewBox="0 0 1190.25 1683.749949" height="2245" preserveAspectRatio="xMidYMid meet" version="1.2"><defs><clipPath id="9952574460"><path d="M 222 482 L 1089 482 L 1089 1581.3125 L 222 1581.3125 Z M 222 482 "/></clipPath></defs><g id="d4da85bb30"><g clip-rule="nonzero" clip-path="url(#9952574460)"><path style=" stroke:none;fill-rule:evenodd;fill:#ffc31e;fill-opacity:1;" d="M 635.210938 967.601562 C 633.648438 964.480469 620.398438 934.074219 620.398438 934.074219 L 621.957031 930.957031 C 621.957031 931.738281 623.515625 931.738281 623.515625 931.738281 L 625.074219 934.855469 C 650.800781 964.480469 707.714844 999.566406 742.800781 1016.714844 C 786.460938 1037.765625 842.59375 1059.597656 890.929688 1074.410156 L 897.945312 1234.234375 C 896.386719 1233.457031 890.152344 1224.878906 889.371094 1222.539062 C 858.1875 1176.542969 857.40625 1163.289062 851.949219 1105.59375 C 830.117188 1094.679688 801.273438 1087.664062 777.882812 1079.085938 C 721.75 1056.476562 692.125 1039.324219 656.261719 998.003906 C 650.023438 991.769531 639.886719 976.957031 635.210938 967.601562 Z M 806.730469 580.121094 C 813.746094 568.425781 819.203125 559.851562 827.78125 548.15625 C 836.355469 537.242188 843.371094 526.324219 851.167969 516.191406 C 748.257812 460.054688 618.058594 481.105469 520.601562 531.003906 C 345.964844 621.441406 265.660156 817.128906 313.21875 1012.820312 C 322.574219 1052.578125 328.8125 1058.039062 340.507812 1087.664062 C 349.863281 1112.613281 310.882812 1224.101562 299.1875 1247.488281 C 273.457031 1302.0625 254.746094 1325.453125 222.003906 1371.453125 C 239.933594 1371.453125 470.707031 1277.894531 511.246094 1268.539062 L 526.0625 1108.714844 C 497.214844 1079.085938 502.671875 1094.679688 473.824219 1102.476562 C 397.421875 1121.1875 321.796875 1043.222656 363.894531 955.90625 C 370.132812 943.429688 355.320312 941.871094 361.558594 932.515625 C 390.402344 884.957031 455.894531 858.449219 506.570312 837.398438 C 582.195312 804.65625 659.378906 775.808594 734.222656 743.0625 C 790.355469 718.894531 851.167969 696.285156 904.964844 672.117188 C 918.996094 666.660156 949.402344 651.847656 961.097656 648.726562 L 969.671875 699.40625 C 924.453125 717.335938 874.558594 733.707031 827.78125 749.300781 L 542.433594 846.757812 C 512.808594 857.671875 465.25 872.484375 440.300781 888.078125 L 414.574219 910.6875 C 440.300781 908.347656 451.996094 900.550781 480.0625 910.6875 C 497.992188 916.921875 515.144531 928.617188 524.5 940.3125 C 567.382812 994.105469 540.875 1029.96875 537.753906 1053.359375 C 546.332031 1058.039062 551.007812 1064.273438 559.585938 1068.953125 C 572.839844 1076.75 571.28125 1079.085938 568.941406 1097.019531 L 554.128906 1313.757812 L 602.464844 1349.621094 C 639.886719 1378.46875 710.054688 1422.90625 749.035156 1450.972656 C 807.507812 1492.292969 876.117188 1532.054688 936.929688 1572.597656 L 951.742188 1581.171875 C 946.285156 1488.398438 945.503906 1393.28125 942.386719 1300.503906 C 939.269531 1209.285156 934.589844 1117.289062 931.472656 1024.511719 C 856.625 996.445312 741.238281 988.648438 710.835938 882.621094 L 749.035156 881.839844 C 805.171875 879.5 884.691406 896.652344 934.589844 922.378906 C 960.316406 934.855469 972.792969 937.972656 975.132812 955.125 C 978.25 976.957031 982.148438 999.566406 985.265625 1021.394531 C 988.386719 1046.34375 987.605469 1071.292969 1000.078125 1080.648438 L 1044.519531 1109.492188 C 1060.890625 1118.847656 1074.144531 1130.542969 1088.957031 1138.339844 C 1088.179688 1118.070312 1078.824219 1079.867188 1074.144531 1058.039062 C 1069.46875 1029.96875 1064.789062 1003.460938 1059.332031 976.957031 C 1055.433594 955.90625 1051.535156 955.90625 1063.230469 943.429688 C 1091.296875 908.347656 1090.515625 929.398438 1072.585938 837.398438 L 1011.773438 518.527344 C 998.519531 523.988281 988.386719 531.003906 975.910156 539.578125 C 945.503906 560.628906 912.761719 580.121094 879.234375 598.832031 C 858.1875 610.527344 837.136719 622.21875 816.085938 633.136719 C 786.460938 648.726562 756.054688 663.542969 726.425781 678.355469 C 700.699219 690.828125 450.4375 814.011719 434.0625 828.042969 C 455.113281 772.691406 494.875 727.472656 535.417969 693.167969 C 582.195312 654.964844 605.582031 657.304688 627.414062 644.832031 C 582.972656 628.457031 496.433594 657.304688 453.554688 684.589844 C 447.316406 689.269531 438.742188 695.507812 432.503906 699.40625 L 410.675781 716.558594 L 444.976562 672.117188 C 535.417969 583.238281 685.105469 563.746094 802.050781 608.96875 C 805.171875 609.746094 807.507812 610.527344 809.847656 612.085938 L 839.472656 597.273438 C 827 591.816406 812.964844 586.359375 806.730469 580.121094 Z M 410.675781 909.125 C 410.675781 910.6875 411.453125 910.6875 412.234375 910.6875 Z M 410.675781 909.125 "/></g><path style=" stroke:none;fill-rule:evenodd;fill:#fa7636;fill-opacity:1;" d="M 237.59375 361.042969 C 246.949219 365.71875 254.746094 372.738281 264.101562 380.535156 C 268.78125 383.652344 271.898438 388.328125 275.796875 391.449219 C 338.167969 441.34375 408.335938 548.15625 413.792969 552.832031 C 430.164062 537.242188 452.773438 520.867188 475.382812 507.613281 C 494.09375 495.140625 542.433594 474.089844 546.332031 471.75 C 527.621094 402.363281 522.941406 355.585938 534.636719 283.078125 L 537.753906 271.382812 C 540.875 308.808594 540.875 339.210938 550.230469 374.296875 C 554.128906 394.566406 568.941406 447.582031 579.074219 460.054688 C 625.074219 447.582031 661.71875 438.226562 715.511719 440.566406 C 721.75 378.972656 742.019531 315.042969 763.851562 265.148438 C 783.339844 222.265625 806.730469 178.609375 834.796875 141.183594 C 839.472656 134.949219 844.933594 131.050781 846.492188 123.253906 C 621.175781 119.355469 459.011719 173.148438 292.167969 306.46875 C 281.253906 315.042969 275.019531 323.621094 264.101562 332.195312 C 254.746094 339.210938 243.050781 350.128906 237.59375 361.042969 Z M 237.59375 361.042969 "/><path style=" stroke:none;fill-rule:evenodd;fill:#fa7636;fill-opacity:1;" d="M 750.597656 442.125 C 800.492188 448.363281 840.253906 462.394531 879.234375 481.105469 C 887.03125 474.871094 905.742188 450.699219 911.199219 444.464844 L 945.503906 406.261719 C 979.027344 368.058594 1017.230469 336.09375 1056.214844 304.910156 L 1097.535156 273.722656 C 1117.804688 258.910156 1141.195312 245.65625 1163.804688 232.402344 C 1175.496094 225.386719 1181.734375 223.828125 1187.972656 217.589844 L 1114.6875 184.84375 C 1088.179688 174.710938 1064.007812 166.914062 1036.722656 158.335938 C 1007.875 148.980469 940.046875 131.828125 909.640625 128.710938 C 898.726562 127.929688 892.488281 140.40625 881.574219 152.101562 L 837.136719 213.691406 C 804.390625 264.367188 749.035156 388.328125 750.597656 442.125 Z M 750.597656 442.125 "/><path style=" stroke:none;fill-rule:evenodd;fill:#fa7636;fill-opacity:1;" d="M 51.261719 698.625 C 112.074219 695.507812 175.222656 704.082031 232.136719 721.234375 C 250.847656 725.914062 268.78125 733.707031 285.152344 737.605469 C 296.847656 690.828125 352.980469 610.527344 387.285156 577 C 379.488281 556.730469 320.238281 488.902344 306.984375 476.429688 C 284.375 456.15625 257.867188 431.988281 231.359375 414.835938 C 224.339844 409.378906 213.425781 400.023438 204.070312 396.90625 C 195.496094 403.144531 162.75 449.921875 154.953125 461.617188 C 115.972656 518.527344 59.839844 630.796875 51.261719 698.625 Z M 51.261719 698.625 "/><path style=" stroke:none;fill-rule:evenodd;fill:#fa7636;fill-opacity:1;" d="M 18.515625 1363.65625 C 22.414062 1361.316406 41.125 1345.722656 45.023438 1342.605469 C 97.261719 1289.589844 109.734375 1281.011719 151.835938 1218.640625 C 201.730469 1145.355469 207.96875 1111.832031 245.390625 1035.429688 C 261.765625 1000.34375 269.558594 1009.699219 264.101562 987.871094 C 255.527344 953.566406 253.96875 920.042969 254.746094 884.179688 C 217.324219 887.296875 164.308594 910.6875 133.902344 925.5 C 89.464844 946.550781 41.90625 985.53125 36.449219 988.648438 C 36.449219 1014.378906 44.246094 1055.699219 45.804688 1083.765625 C 48.921875 1118.070312 48.921875 1151.59375 48.144531 1185.898438 C 45.804688 1267.757812 37.230469 1291.929688 18.515625 1363.65625 Z M 18.515625 1363.65625 "/><path style=" stroke:none;fill-rule:evenodd;fill:#fa7636;fill-opacity:1;" d="M 30.992188 923.941406 L 33.332031 935.632812 L 42.6875 931.738281 C 59.839844 910.6875 154.953125 873.261719 195.496094 863.128906 C 215.765625 857.671875 236.816406 855.332031 257.085938 849.875 C 260.203125 819.46875 266.441406 796.859375 273.457031 770.351562 C 216.546875 743.84375 112.074219 736.828125 41.90625 742.285156 C 37.230469 771.910156 33.332031 799.199219 30.992188 829.605469 C 30.210938 860.789062 32.550781 894.3125 30.992188 923.941406 Z M 30.992188 923.941406 "/><path style=" stroke:none;fill-rule:evenodd;fill:#ffc31e;fill-opacity:1;" d="M 1076.484375 1560.902344 C 1079.601562 1539.851562 1084.28125 1254.503906 1084.28125 1209.285156 C 1085.058594 1179.660156 1090.515625 1185.117188 1049.195312 1158.609375 C 1043.738281 1155.492188 1038.28125 1150.8125 1032.042969 1147.695312 C 1035.164062 1192.914062 1034.382812 1319.996094 1035.164062 1374.570312 C 1035.164062 1389.382812 1032.824219 1417.449219 1038.28125 1429.144531 C 1055.433594 1472.023438 1072.585938 1551.546875 1076.484375 1560.902344 Z M 1076.484375 1560.902344 "/><path style=" stroke:none;fill-rule:evenodd;fill:#fa7636;fill-opacity:1;" d="M 398.980469 1019.835938 C 415.351562 1085.324219 518.265625 1062.714844 502.671875 990.988281 C 487.859375 926.277344 378.710938 946.550781 398.980469 1019.835938 Z M 398.980469 1019.835938 "/><path style=" stroke:none;fill-rule:evenodd;fill:#fa7636;fill-opacity:1;" d="M 42.6875 931.738281 L 33.332031 935.632812 L 30.992188 923.941406 L 30.992188 938.753906 Z M 42.6875 931.738281 "/></g></svg>